<?xml version="1.0" encoding="utf-8"?>
<!-- Generator: Adobe Illustrator 26.0.3, SVG Export Plug-In . SVG Version: 6.00 Build 0)  -->
<svg version="1.1" id="Layer_1" xmlns="http://www.w3.org/2000/svg" xmlns:xlink="http://www.w3.org/1999/xlink" x="0px" y="0px"
	 viewBox="0 0 24.1 24" style="enable-background:new 0 0 24.1 24;" xml:space="preserve">
<style type="text/css">
	.st0{fill-rule:evenodd;clip-rule:evenodd;fill:#1B375E;}
</style>
<path class="st0" d="M14.8,24c8.3-0.2,9.2-2,9.2-12C24,1,23,0,12,0C1,0,0,1,0,12c0,10,0.8,11.7,9.2,12c0.1-0.1,0.1-0.2,0.1-0.3
	c0-0.2,0-2.8,0-3.7c-3,0.6-3.7-1.4-3.7-1.4C5.1,17.3,4.4,17,4.4,17c-1-0.7,0.1-0.6,0.1-0.6c1.1,0.1,1.7,1.1,1.7,1.1
	c1,1.6,2.6,1.1,3.2,0.9c0.1-0.7,0.4-1.2,0.7-1.4c-2.4-0.3-5-1.2-5-5.2c0-1.2,0.4-2.1,1.1-2.8C6.1,8.6,5.7,7.5,6.3,6
	c0,0,0.9-0.3,3,1.1c0.9-0.2,1.8-0.4,2.7-0.4c0.9,0,1.9,0.1,2.7,0.4c2.1-1.4,3-1.1,3-1.1c0.6,1.5,0.2,2.5,0.1,2.8
	c0.7,0.7,1.1,1.7,1.1,2.8c0,4.1-2.6,5-5,5.2c0.4,0.3,0.7,1,0.7,2c0,0.9,0,2.6,0,3.7c0,0.5,0,1,0,1.1C14.7,23.8,14.8,23.9,14.8,24
	L14.8,24z"/>
</svg>
