<?xml version="1.0" encoding="utf-8"?>
<!-- Generator: Adobe Illustrator 26.0.3, SVG Export Plug-In . SVG Version: 6.00 Build 0)  -->
<svg version="1.1" id="Layer_1" xmlns="http://www.w3.org/2000/svg" xmlns:xlink="http://www.w3.org/1999/xlink" x="0px" y="0px"
	 viewBox="0 0 49.4 49.7" style="enable-background:new 0 0 49.4 49.7;" xml:space="preserve">
<style type="text/css">
	.st0{fill:#1B375E;}
</style>
<path class="st0" d="M45.8,0H3.7C1.6,0,0,1.6,0,3.6v42.6c0,2,1.6,3.6,3.7,3.6h42.1c2,0,3.7-1.6,3.7-3.6V3.6C49.4,1.6,47.8,0,45.8,0z
	 M15,41.6H7.5V19.2H15V41.6z M11.2,16.1L11.2,16.1c-2.6,0-4.2-1.7-4.2-3.9c0-2.2,1.7-3.9,4.2-3.9c2.6,0,4.1,1.7,4.2,3.9
	C15.5,14.4,13.9,16.1,11.2,16.1z M41.9,41.6h-7.5v-12c0-3-1.1-5.1-3.8-5.1c-2.1,0-3.3,1.4-3.8,2.7c-0.2,0.5-0.2,1.1-0.2,1.8v12.5
	h-7.5c0,0,0.1-20.4,0-22.5h7.5v3.2c1-1.5,2.8-3.7,6.7-3.7c4.9,0,8.6,3.2,8.6,10.1L41.9,41.6L41.9,41.6z"/>
</svg>
