<?xml version="1.0" encoding="utf-8"?>
<!-- Generator: Adobe Illustrator 27.0.0, SVG Export Plug-In . SVG Version: 6.00 Build 0)  -->
<svg version="1.1" id="Layer_1" xmlns="http://www.w3.org/2000/svg" xmlns:xlink="http://www.w3.org/1999/xlink" x="0px" y="0px"
	 viewBox="0 0 256 256" style="enable-background:new 0 0 256 256;" xml:space="preserve">
<style type="text/css">
	.st0{fill:#1B375E;}
</style>
<g transform="translate(1.4065934065934016 1.4065934065934016) scale(2.81 2.81)">
	<path class="st0" d="M28.3,81.6c34,0,52.5-28.1,52.5-52.5c0-0.8,0-1.6-0.1-2.4c3.6-2.6,6.7-5.9,9.2-9.6c-3.4,1.5-6.9,2.5-10.6,2.9
		c3.9-2.3,6.7-5.9,8.1-10.2c-3.6,2.2-7.6,3.7-11.7,4.5c-7-7.4-18.7-7.8-26.1-0.8c-4.8,4.5-6.8,11.2-5.3,17.6
		c-14.8-0.7-28.7-7.8-38.1-19.3C1.4,20.2,3.9,31,12,36.5c-2.9-0.1-5.8-0.9-8.4-2.3c0,0.1,0,0.2,0,0.2c0,8.8,6.2,16.4,14.8,18.1
		c-2.7,0.7-5.6,0.8-8.3,0.3c2.4,7.5,9.4,12.7,17.3,12.8c-6.5,5.1-14.6,7.9-22.9,7.9c-1.5,0-2.9-0.1-4.4-0.3
		C8.4,78.7,18.3,81.6,28.3,81.6"/>
</g>
</svg>
